<svg xmlns="http://www.w3.org/2000/svg" width="17.686" height="17.686" viewBox="0 0 17.686 17.686">
  <path id="Icon_ionic-logo-linkedin" data-name="Icon ionic-logo-linkedin" d="M20.771,4.5H6.011A1.443,1.443,0,0,0,4.5,5.877V20.67a1.556,1.556,0,0,0,1.511,1.516H20.767a1.477,1.477,0,0,0,1.419-1.516V5.877A1.356,1.356,0,0,0,20.771,4.5ZM9.982,19.242H7.448V11.364H9.982ZM8.8,10.166H8.784A1.3,1.3,0,0,1,7.448,8.807,1.309,1.309,0,0,1,8.817,7.448a1.305,1.305,0,0,1,1.354,1.359A1.308,1.308,0,0,1,8.8,10.166Zm10.439,9.075H16.708V14.934c0-1.032-.369-1.737-1.285-1.737a1.386,1.386,0,0,0-1.3.935,1.706,1.706,0,0,0-.088.622v4.487H11.5V11.364h2.534v1.1a2.565,2.565,0,0,1,2.285-1.281c1.663,0,2.921,1.1,2.921,3.46Z" transform="translate(-4.5 -4.5)" fill="#fff"/>
</svg>
